<?xml version="1.0" encoding="utf-8"?>
<!-- Generator: Adobe Illustrator 16.0.4, SVG Export Plug-In . SVG Version: 6.00 Build 0)  -->
<!DOCTYPE svg PUBLIC "-//W3C//DTD SVG 1.1//EN" "http://www.w3.org/Graphics/SVG/1.1/DTD/svg11.dtd">
<svg version="1.1" id="Layer_1" xmlns="http://www.w3.org/2000/svg" xmlns:xlink="http://www.w3.org/1999/xlink" x="0px" y="0px"
	 width="223.777px" height="90.082px" viewBox="0 0 223.777 90.082" enable-background="new 0 0 223.777 90.082"
	 xml:space="preserve">
<path d="M42.152,78.375h1.493l4.033,9.231h-1.702l-0.929-2.213h-4.336l-0.941,2.213h-1.65L42.152,78.375z M44.456,83.966
	l-1.583-3.668L41.3,83.966H44.456z"/>
<path d="M53.167,78.439h4.085c1.152,0,2.057,0.342,2.646,0.916c0.484,0.498,0.758,1.18,0.758,1.979v0.027
	c0,1.506-0.903,2.408-2.173,2.773l2.476,3.471h-1.912l-2.251-3.193h-2.019v3.193h-1.609V78.439z M57.134,82.983
	c1.151,0,1.884-0.603,1.884-1.53v-0.027c0-0.982-0.706-1.518-1.897-1.518h-2.345v3.075H57.134z"/>
<path d="M65.872,78.375h1.493l4.032,9.231h-1.702l-0.929-2.213h-4.336l-0.94,2.213h-1.651L65.872,78.375z M68.176,83.966
	l-1.583-3.668l-1.573,3.668H68.176z"/>
<polygon points="72.96,78.44 74.57,78.44 74.57,86.139 79.39,86.139 79.39,87.605 72.96,87.605 "/>
<polygon points="81.059,78.44 82.774,78.44 85.564,82.774 88.352,78.44 90.067,78.44 90.067,87.605 88.457,87.605 88.457,81.033 
	85.564,85.353 85.511,85.353 82.643,81.058 82.643,87.605 81.059,87.605 "/>
<path d="M95.662,78.375h1.492l4.033,9.231h-1.701l-0.93-2.213h-4.336l-0.941,2.213H91.63L95.662,78.375z M97.966,83.966
	l-1.583-3.668l-1.573,3.668H97.966z"/>
<polygon points="110.32,78.44 107.125,82.917 110.45,87.605 108.552,87.605 106.13,84.11 103.721,87.605 101.874,87.605 
	105.187,82.945 102.006,78.44 103.903,78.44 106.182,81.764 108.473,78.44 "/>
<path d="M115.626,83.048v-0.025c0-2.605,1.951-4.74,4.727-4.74c1.688,0,2.71,0.59,3.589,1.428l-1.034,1.191
	c-0.732-0.681-1.521-1.14-2.565-1.14c-1.742,0-3.026,1.44-3.026,3.233v0.026c0,1.795,1.271,3.247,3.026,3.247
	c1.126,0,1.845-0.445,2.631-1.178l1.034,1.048c-0.955,0.995-2.003,1.623-3.719,1.623C117.616,87.763,115.626,85.681,115.626,83.048"
	/>
<path d="M125.018,83.048v-0.025c0-2.58,1.991-4.74,4.808-4.74c2.815,0,4.778,2.135,4.778,4.713v0.027c0,2.58-1.991,4.74-4.807,4.74
	C126.981,87.763,125.018,85.626,125.018,83.048 M132.914,83.048v-0.025c0-1.781-1.297-3.262-3.117-3.262s-3.089,1.455-3.089,3.234
	v0.026c0,1.78,1.297,3.247,3.116,3.247C131.643,86.269,132.914,84.83,132.914,83.048"/>
<polygon points="136.545,78.44 138.261,78.44 141.051,82.774 143.839,78.44 145.554,78.44 145.554,87.605 143.943,87.605 
	143.943,81.033 141.051,85.353 140.997,85.353 138.129,81.058 138.129,87.605 136.545,87.605 "/>
<path d="M147.901,78.439h3.614c2.147,0,3.482,1.219,3.482,3.064v0.024c0,2.06-1.649,3.132-3.665,3.132h-1.822v2.944h-1.609V78.439z
	 M151.384,83.205c1.219,0,1.978-0.68,1.978-1.637v-0.023c0-1.073-0.771-1.639-1.978-1.639h-1.873v3.299H151.384z"/>
<path d="M158.974,78.375h1.492l4.033,9.231h-1.701l-0.93-2.213h-4.336l-0.941,2.213h-1.649L158.974,78.375z M161.277,83.966
	l-1.583-3.668l-1.572,3.668H161.277z"/>
<polygon points="166.062,78.44 167.555,78.44 172.465,84.777 172.465,78.44 174.049,78.44 174.049,87.605 172.699,87.605 
	167.646,81.083 167.646,87.605 166.062,87.605 "/>
<polygon points="179.096,83.992 175.456,78.439 177.367,78.439 179.922,82.486 182.514,78.439 184.36,78.439 180.72,83.953 
	180.72,87.605 179.096,87.605 "/>
<path fill="#E28431" d="M33.098,18.395V2.351h8v15.88c0,4.123,2.083,6.083,5.266,6.083c3.226,0,5.309-1.878,5.309-5.878V2.351h8
	V18.19c0,9.185-5.265,13.268-13.389,13.268C38.2,31.458,33.098,27.334,33.098,18.395"/>
<polygon fill="#E28431" points="64.279,2.351 71.667,2.351 83.424,17.456 83.424,2.351 91.26,2.351 91.26,30.927 84.362,30.927 
	72.116,15.251 72.116,30.927 64.279,30.927 "/>
<rect x="96.437" y="2.351" fill="#E28431" width="7.92" height="28.576"/>
<polygon fill="#E28431" points="116.478,9.292 107.946,9.292 107.946,2.351 132.97,2.351 132.97,9.292 124.397,9.292 
	124.397,30.926 116.478,30.926 "/>
<polygon fill="#E28431" points="136.352,2.351 159.333,2.351 159.333,9.045 144.19,9.045 144.19,13.414 157.906,13.414 
	157.906,19.662 144.19,19.662 144.19,24.19 159.538,24.19 159.538,30.927 136.352,30.927 "/>
<path fill="#E28431" d="M163.533,2.351h11.062c10.165,0,16.084,5.877,16.084,14.126v0.081c0,8.245-6.001,14.369-16.249,14.369
	h-10.897V2.351z M171.452,9.332v14.573h3.226c4.777,0,7.92-2.613,7.92-7.225v-0.082c0-4.572-3.143-7.266-7.92-7.266H171.452z"/>
<polygon fill="#56565A" points="2.487,38.176 18.205,38.176 18.205,40.413 4.94,40.413 4.94,47.837 16.806,47.837 16.806,50.076 
	4.94,50.076 4.94,57.686 18.36,57.686 18.36,59.921 2.487,59.921 "/>
<polygon fill="#56565A" points="23.203,38.176 25.501,38.176 39.202,55.605 39.202,38.176 41.593,38.176 41.593,59.921 
	39.637,59.921 25.594,42.092 25.594,59.921 23.203,59.921 "/>
<path fill="#56565A" d="M46.68,49.112V49.05c0-5.964,4.381-11.248,10.905-11.248c3.665,0,5.933,1.057,8.107,2.891l-1.584,1.863
	c-1.677-1.461-3.542-2.486-6.617-2.486c-4.814,0-8.264,4.069-8.264,8.917v0.062c0,5.188,3.323,9.041,8.604,9.041
	c2.486,0,4.786-0.963,6.276-2.176v-5.406h-6.617v-2.203h8.978v8.667c-2.018,1.802-5.063,3.321-8.729,3.321
	C50.906,60.294,46.68,55.326,46.68,49.112"/>
<rect x="72.117" y="38.176" fill="#56565A" width="2.452" height="21.748"/>
<polygon fill="#56565A" points="80.845,38.176 83.143,38.176 96.844,55.605 96.844,38.176 99.235,38.176 99.235,59.921 
	97.279,59.921 83.237,42.092 83.237,59.921 80.845,59.921 "/>
<polygon fill="#56565A" points="105.287,38.176 121.005,38.176 121.005,40.413 107.74,40.413 107.74,47.837 119.607,47.837 
	119.607,50.076 107.74,50.076 107.74,57.686 121.16,57.686 121.16,59.921 105.287,59.921 "/>
<polygon fill="#56565A" points="126.004,38.176 141.722,38.176 141.722,40.413 128.457,40.413 128.457,47.837 140.323,47.837 
	140.323,50.076 128.457,50.076 128.457,57.686 141.877,57.686 141.877,59.921 126.004,59.921 "/>
<path fill="#56565A" d="M146.718,38.176h9.351c2.674,0,4.814,0.809,6.183,2.176c1.056,1.056,1.679,2.577,1.679,4.287v0.062
	c0,3.604-2.485,5.716-5.903,6.337l6.681,8.885h-3.015l-6.306-8.45h-6.214v8.45h-2.454L146.718,38.176L146.718,38.176z
	 M155.851,49.267c3.262,0,5.593-1.68,5.593-4.474V44.73c0-2.671-2.051-4.286-5.561-4.286h-6.711v8.823H155.851z"/>
<rect x="169.296" y="38.176" fill="#56565A" width="2.454" height="21.748"/>
<polygon fill="#56565A" points="178.023,38.176 180.322,38.176 194.022,55.605 194.022,38.176 196.414,38.176 196.414,59.921 
	194.457,59.921 180.415,42.092 180.415,59.921 178.023,59.921 "/>
<path fill="#56565A" d="M201.502,49.112V49.05c0-5.964,4.381-11.248,10.905-11.248c3.664,0,5.933,1.057,8.106,2.891l-1.584,1.863
	c-1.678-1.461-3.542-2.486-6.615-2.486c-4.815,0-8.266,4.069-8.266,8.917v0.062c0,5.188,3.323,9.041,8.604,9.041
	c2.486,0,4.786-0.963,6.276-2.176v-5.406h-6.615v-2.203h8.977v8.667c-2.019,1.802-5.063,3.321-8.729,3.321
	C205.728,60.294,201.502,55.326,201.502,49.112"/>
</svg>
