<?xml version="1.0" encoding="UTF-8" standalone="no"?>
<!DOCTYPE svg PUBLIC "-//W3C//DTD SVG 1.1//EN" "http://www.w3.org/Graphics/SVG/1.1/DTD/svg11.dtd">
<svg width="100%" height="100%" viewBox="0 0 260 59" version="1.1" xmlns="http://www.w3.org/2000/svg" xmlns:xlink="http://www.w3.org/1999/xlink" xml:space="preserve" xmlns:serif="http://www.serif.com/" style="fill-rule:evenodd;clip-rule:evenodd;stroke-linejoin:round;stroke-miterlimit:2;">
    <path d="M11.721,14.783C14.497,14.783 16.254,13.271 16.254,11.025L16.254,10.944C16.254,8.494 14.497,7.228 11.68,7.228L7.922,7.228L7.922,14.783L11.721,14.783ZM0,0.57L12.291,0.57C19.478,0.57 24.136,4.288 24.136,10.576L24.136,10.657C24.136,17.437 18.949,20.99 11.884,20.99L7.922,20.99L7.922,29.158L0,29.158L0,0.57ZM49.12,14.945L49.12,14.865C49.12,10.7 46.18,7.147 41.81,7.147C37.44,7.147 34.542,10.657 34.542,14.783L34.542,14.865C34.542,18.99 37.523,22.584 41.892,22.584C46.22,22.584 49.12,19.07 49.12,14.945M26.456,14.945L26.456,14.865C26.456,6.656 33.071,0 41.892,0C50.713,0 57.247,6.574 57.247,14.783L57.247,14.865C57.247,23.072 50.632,29.73 41.81,29.73C32.99,29.73 26.456,23.156 26.456,14.945M61.445,0.57L69.369,0.57L69.369,29.158L61.445,29.158L61.445,0.57ZM74.509,0.57L81.9,0.57L93.661,15.681L93.661,0.57L101.501,0.57L101.501,29.158L94.6,29.158L82.35,13.476L82.35,29.158L74.509,29.158L74.509,0.57ZM113.461,7.513L104.926,7.513L104.926,0.57L129.96,0.57L129.96,7.513L121.383,7.513L121.383,29.158L113.461,29.158L113.461,7.513ZM144.569,0.57L152.491,0.57L152.491,11.27L162.66,11.27L162.66,0.57L170.581,0.57L170.581,29.158L162.66,29.158L162.66,18.295L152.491,18.295L152.491,29.158L144.569,29.158L144.569,0.57ZM197.281,14.945L197.281,14.865C197.281,10.7 194.341,7.147 189.972,7.147C185.601,7.147 182.703,10.657 182.703,14.783L182.703,14.865C182.703,18.99 185.684,22.584 190.053,22.584C194.381,22.584 197.281,19.07 197.281,14.945M174.617,14.945L174.617,14.865C174.617,6.656 181.232,0 190.053,0C198.874,0 205.407,6.574 205.407,14.783L205.407,14.865C205.407,23.072 198.792,29.73 189.972,29.73C181.151,29.73 174.617,23.156 174.617,14.945M221.123,14.783C223.899,14.783 225.655,13.271 225.655,11.025L225.655,10.944C225.655,8.494 223.899,7.228 221.081,7.228L217.325,7.228L217.325,14.783L221.123,14.783ZM209.403,0.57L221.693,0.57C228.881,0.57 233.538,4.288 233.538,10.576L233.538,10.657C233.538,17.437 228.351,20.99 221.286,20.99L217.325,20.99L217.325,29.158L209.403,29.158L209.403,0.57ZM236.796,0.57L259.787,0.57L259.787,7.268L244.637,7.268L244.637,11.637L258.358,11.637L258.358,17.888L244.637,17.888L244.637,22.42L259.992,22.42L259.992,29.158L236.796,29.158L236.796,0.57ZM0,36.41L2.485,36.41L10.41,48.283L18.336,36.41L20.821,36.41L20.821,58.164L18.366,58.164L18.366,40.543L10.441,52.197L10.317,52.197L2.392,40.576L2.392,58.164L0,58.164L0,36.41ZM40.985,50.177L36.044,39.114L31.07,50.177L40.985,50.177ZM34.925,36.255L37.224,36.255L47.138,58.163L44.496,58.163L41.948,52.415L30.108,52.415L27.528,58.163L25.011,58.163L34.925,36.255ZM60.463,47.506C63.727,47.506 66.058,45.826 66.058,43.028L66.058,42.966C66.058,40.295 64.006,38.68 60.495,38.68L53.782,38.68L53.782,47.506L60.463,47.506ZM51.328,36.41L60.681,36.41C63.355,36.41 65.497,37.219 66.865,38.586C67.921,39.643 68.545,41.164 68.545,42.875L68.545,42.938C68.545,46.542 66.058,48.653 62.638,49.276L69.321,58.164L66.307,58.164L59.998,49.711L53.782,49.711L53.782,58.164L51.328,58.164L51.328,36.41ZM73.914,36.41L76.368,36.41L76.368,58.164L73.914,58.164L73.914,36.41ZM88.393,38.679L81.091,38.679L81.091,36.409L98.182,36.409L98.182,38.679L90.88,38.679L90.88,58.163L88.393,58.163L88.393,38.679ZM102.899,36.41L105.354,36.41L105.354,58.164L102.899,58.164L102.899,36.41ZM111.63,36.41L114.115,36.41L122.041,48.283L129.966,36.41L132.451,36.41L132.451,58.164L129.997,58.164L129.997,40.543L122.071,52.197L121.948,52.197L114.022,40.576L114.022,58.164L111.63,58.164L111.63,36.41ZM138.506,36.41L154.23,36.41L154.23,38.646L140.961,38.646L140.961,46.074L152.832,46.074L152.832,48.312L140.961,48.312L140.961,55.926L154.385,55.926L154.385,58.164L138.506,58.164L138.506,36.41Z" style="fill:rgb(66,150,180);fill-rule:nonzero;"/>
</svg>
