<svg id="logo-color" xmlns="http://www.w3.org/2000/svg" width="193.233" height="51.223" viewBox="0 0 193.233 51.223">
  <path id="Path_1" data-name="Path 1" d="M0,14.13V0H7.065V14.042c0,3.621,1.855,5.387,4.681,5.387s4.681-1.678,4.681-5.211V0h7.065V13.954c0,8.125-4.681,11.746-11.834,11.746S0,22.079,0,14.13M27.554,0H34.09L44.511,13.336V0H51.4V25.258H45.306L34.531,11.393V25.258H27.643V0ZM55.9,0H62.88V25.258H55.9V0ZM73.655,6.094H66.148V0H88.227V6.094h-7.6V25.17H73.655ZM91.23,0h20.312V5.917H98.206V9.8h12.1v5.476h-12.1v3.974h13.512V25.17H91.23Zm31,6.182V19.076h2.826c4.239,0,6.977-2.3,6.977-6.359h0c0-4.151-2.738-6.447-6.977-6.447h-2.826ZM115.163,0h9.8c9.008,0,14.219,5.211,14.219,12.452h0c0,7.33-5.3,12.717-14.307,12.717h-9.626V0Z" fill="#e38432"/>
  <path id="Path_2" data-name="Path 2" d="M0,35.8H13.865v2.031H2.208v6.535H12.629v1.943H2.208v6.712H14.042v2.031H0Z" transform="translate(0 -4.183)" fill="#333"/>
  <path id="Path_3" data-name="Path 3" d="M20.7,35.8h2.031l12.1,15.455V35.8h2.12V55.053H35.272L22.82,39.244V55.053H20.7Z" transform="translate(-2.419 -4.183)" fill="#333"/>
  <path id="Path_4" data-name="Path 4" d="M44.2,45.48h0a9.669,9.669,0,0,1,9.626-9.98c5.74,0,5.211.971,7.154,2.561l-1.413,1.678a7.989,7.989,0,0,0-5.829-2.208c-4.239,0-7.33,3.621-7.33,7.86h0c0,4.592,2.914,8.037,7.6,8.037s4.239-.883,5.564-1.943V46.716H53.738V44.773h7.948v7.683A11.714,11.714,0,0,1,54,55.371c-6.005,0-9.8-4.416-9.8-9.891" transform="translate(-5.165 -4.148)" fill="#333"/>
  <rect id="Rectangle_3" data-name="Rectangle 3" width="2.208" height="19.164" transform="translate(61.467 31.617)" fill="#333"/>
  <path id="Path_5" data-name="Path 5" d="M78.4,35.8h2.031l12.1,15.455V35.8h2.031V55.053H92.884L80.431,39.244V55.053H78.4Z" transform="translate(-9.161 -4.183)" fill="#333"/>
  <path id="Path_6" data-name="Path 6" d="M102.8,35.8h13.865v2.031H105.008v6.535h10.421v1.943H105.008v6.712h11.834v2.031H102.8Z" transform="translate(-12.012 -4.183)" fill="#333"/>
  <path id="Path_7" data-name="Path 7" d="M123.5,35.8h13.865v2.031H125.708v6.535h10.421v1.943H125.708v6.712h11.834v2.031H123.5Z" transform="translate(-14.431 -4.183)" fill="#333"/>
  <path id="Path_8" data-name="Path 8" d="M154.168,47.2c3-.53,5.211-2.385,5.211-5.564h0a4.984,4.984,0,0,0-1.5-3.8A7.5,7.5,0,0,0,152.4,35.9h-8.3V55.064h2.208V47.558h5.476l5.564,7.507H160L154.08,47.2Zm-7.772-1.59V37.843h5.917c3.091,0,4.946,1.413,4.946,3.8h0c0,2.561-2.031,3.974-4.946,3.974Z" transform="translate(-16.838 -4.195)" fill="#333"/>
  <rect id="Rectangle_4" data-name="Rectangle 4" width="2.208" height="19.164" transform="translate(147.31 31.617)" fill="#333"/>
  <path id="Path_9" data-name="Path 9" d="M175.5,35.8h2.031l12.1,15.455V35.8h2.12V55.053h-1.678L177.62,39.244V55.053H175.5Z" transform="translate(-20.507 -4.183)" fill="#333"/>
  <path id="Path_10" data-name="Path 10" d="M199,45.48h0a9.669,9.669,0,0,1,9.626-9.98c5.74,0,5.211.971,7.154,2.561l-1.413,1.678a7.989,7.989,0,0,0-5.829-2.208c-4.239,0-7.33,3.621-7.33,7.86h0c0,4.592,2.914,8.037,7.6,8.037s4.239-.883,5.564-1.943V46.716h-5.829V44.773h7.948v7.683a11.714,11.714,0,0,1-7.683,2.914c-6.005,0-9.8-4.416-9.8-9.891" transform="translate(-23.253 -4.148)" fill="#333"/>
</svg>
