<?xml version="1.0" encoding="utf-8"?>
<!-- Generator: Adobe Illustrator 16.0.4, SVG Export Plug-In . SVG Version: 6.00 Build 0)  -->
<!DOCTYPE svg PUBLIC "-//W3C//DTD SVG 1.1//EN" "http://www.w3.org/Graphics/SVG/1.1/DTD/svg11.dtd">
<svg version="1.1" id="Layer_1" xmlns="http://www.w3.org/2000/svg" xmlns:xlink="http://www.w3.org/1999/xlink" x="0px" y="0px"
	 width="375.924px" height="62.448px" viewBox="0 0 375.924 62.448" enable-background="new 0 0 375.924 62.448"
	 xml:space="preserve">
<path fill="#457CBF" d="M98.801,2.32h13.527c4.374,0,7.398,1.144,9.32,3.064c1.674,1.676,2.533,3.842,2.533,6.662v0.082
	c0,4.414-2.329,7.315-5.885,8.828l6.825,9.973h-9.114l-5.764-8.666h-3.513v8.666h-7.929V2.32z M112.002,16.052
	c2.656,0,4.25-1.309,4.25-3.393v-0.082c0-2.289-1.676-3.433-4.291-3.433h-5.231v6.908H112.002z"/>
<path fill="#457CBF" d="M137.459,2.115h7.643l12.179,28.814h-8.501l-2.044-5.15h-11.075l-2.044,5.15h-8.296L137.459,2.115z
	 M144.407,19.607l-3.188-8.092l-3.229,8.092H144.407z"/>
<polygon fill="#457CBF" points="159.974,2.32 167.902,2.32 167.902,23.98 181.758,23.98 181.758,30.929 159.974,30.929 "/>
<polygon fill="#457CBF" points="185.104,2.32 193.483,2.32 200.309,13.394 207.134,2.32 215.513,2.32 215.513,30.929 
	207.624,30.929 207.624,14.498 200.309,25.697 200.145,25.697 192.87,14.539 192.87,30.929 185.104,30.929 "/>
<path fill="#457CBF" d="M230.383,2.115h7.643l12.18,28.814h-8.501l-2.044-5.15h-11.075l-2.044,5.15h-8.296L230.383,2.115z
	 M237.331,19.607l-3.188-8.092l-3.229,8.092H237.331z"/>
<polygon fill="#457CBF" points="278.605,2.32 269.205,16.256 279.014,30.929 269.899,30.929 264.423,22.263 258.905,30.929 
	249.996,30.929 259.805,16.379 250.404,2.32 259.519,2.32 264.546,10.371 269.695,2.32 "/>
<path fill="#56565A" d="M2.562,49.136v-0.061c0-5.975,4.386-11.26,10.918-11.26c3.67,0,5.941,1.057,8.118,2.891l-1.587,1.868
	c-1.679-1.462-3.545-2.489-6.625-2.489c-4.82,0-8.273,4.074-8.273,8.926v0.064c0,5.193,3.328,9.049,8.616,9.049
	c2.488,0,4.79-0.963,6.282-2.176v-5.412h-6.625v-2.209h8.989v8.678c-2.021,1.805-5.07,3.33-8.74,3.33
	C6.792,60.335,2.562,55.357,2.562,49.136"/>
<path fill="#56565A" d="M27.812,38.187h9.363c2.675,0,4.821,0.809,6.189,2.178c1.059,1.059,1.68,2.582,1.68,4.293v0.062
	c0,3.607-2.488,5.723-5.909,6.343l6.686,8.897h-3.016l-6.314-8.459H30.27v8.459h-2.458V38.187z M36.957,49.292
	c3.266,0,5.599-1.68,5.599-4.48v-0.061c0-2.676-2.053-4.293-5.568-4.293H30.27v8.834H36.957z"/>
<path fill="#56565A" d="M49.237,49.136v-0.061c0-6.004,4.51-11.26,11.136-11.26c6.625,0,11.073,5.193,11.073,11.195v0.064
	c0,6.002-4.51,11.26-11.135,11.26C53.686,60.335,49.237,55.14,49.237,49.136 M68.896,49.136v-0.061c0-4.947-3.608-8.99-8.584-8.99
	c-4.978,0-8.523,3.982-8.523,8.926v0.064c0,4.943,3.608,8.988,8.585,8.988C65.35,58.064,68.896,54.083,68.896,49.136"/>
<path fill="#56565A" d="M76.199,50.847v-12.66h2.457v12.504c0,4.697,2.519,7.342,6.656,7.342c4.013,0,6.564-2.428,6.564-7.186
	v-12.66h2.456v12.475c0,6.344-3.639,9.643-9.082,9.643C79.869,60.304,76.199,57.005,76.199,50.847"/>
<path fill="#56565A" d="M100.05,38.187h8.15c4.914,0,8.149,2.613,8.149,6.906v0.062c0,4.697-3.919,7.121-8.554,7.121h-5.288v7.684
	h-2.457V38.187z M107.889,50.039c3.607,0,5.972-1.928,5.972-4.791v-0.061c0-3.111-2.333-4.729-5.848-4.729h-5.506v9.58H107.889z"/>
<path fill="#56565A" d="M129,49.136v-0.061c0-6.004,4.511-11.26,11.136-11.26s11.073,5.193,11.073,11.195v0.064
	c0,6.002-4.511,11.26-11.136,11.26S129,55.14,129,49.136 M148.658,49.136v-0.061c0-4.947-3.607-8.99-8.585-8.99
	c-4.976,0-8.522,3.982-8.522,8.926v0.064c0,4.943,3.608,8.988,8.585,8.988C145.112,58.064,148.658,54.083,148.658,49.136"/>
<polygon fill="#56565A" points="156.304,38.187 171.95,38.187 171.95,40.458 158.761,40.458 158.761,48.234 170.55,48.234 
	170.55,50.474 158.761,50.474 158.761,59.96 156.304,59.96 "/>
<path fill="#56565A" d="M184.881,49.136v-0.061c0-6.16,4.604-11.26,11.01-11.26c3.951,0,6.315,1.398,8.493,3.451l-1.68,1.805
	c-1.836-1.742-3.889-2.986-6.844-2.986c-4.821,0-8.43,3.918-8.43,8.926v0.064c0,5.037,3.64,8.988,8.43,8.988
	c2.986,0,4.945-1.15,7.029-3.143l1.617,1.586c-2.27,2.303-4.759,3.828-8.709,3.828C189.516,60.335,184.881,55.388,184.881,49.136"/>
<path fill="#56565A" d="M207.114,49.136v-0.061c0-6.004,4.511-11.26,11.136-11.26s11.074,5.193,11.074,11.195v0.064
	c0,6.002-4.511,11.26-11.136,11.26C211.562,60.335,207.114,55.14,207.114,49.136 M226.773,49.136v-0.061
	c0-4.947-3.608-8.99-8.585-8.99c-4.978,0-8.522,3.982-8.522,8.926v0.064c0,4.943,3.608,8.988,8.584,8.988
	C223.227,58.064,226.773,54.083,226.773,49.136"/>
<polygon fill="#56565A" points="234.418,38.187 236.906,38.187 244.838,50.07 252.77,38.187 255.259,38.187 255.259,59.96 
	252.801,59.96 252.801,42.324 244.869,53.99 244.745,53.99 236.814,42.357 236.814,59.96 234.418,59.96 "/>
<path fill="#56565A" d="M261.317,38.187h8.148c4.914,0,8.15,2.613,8.15,6.906v0.062c0,4.697-3.92,7.121-8.555,7.121h-5.288v7.684
	h-2.456V38.187z M269.155,50.039c3.608,0,5.972-1.928,5.972-4.791v-0.061c0-3.111-2.333-4.729-5.848-4.729h-5.506v9.58H269.155z"/>
<path fill="#56565A" d="M287.876,38.033h2.302l9.923,21.928h-2.645l-2.551-5.754h-11.851l-2.582,5.754h-2.519L287.876,38.033z
	 M293.941,51.966l-4.946-11.072l-4.977,11.072H293.941z"/>
<polygon fill="#56565A" points="304.293,38.187 306.595,38.187 320.312,55.638 320.312,38.187 322.707,38.187 322.707,59.96 
	320.747,59.96 306.689,42.107 306.689,59.96 304.293,59.96 "/>
<rect x="328.983" y="38.187" fill="#56565A" width="2.458" height="21.772"/>
<polygon fill="#56565A" points="337.722,38.187 353.461,38.187 353.461,40.427 340.179,40.427 340.179,47.861 352.061,47.861 
	352.061,50.101 340.179,50.101 340.179,57.722 353.617,57.722 353.617,59.96 337.722,59.96 "/>
<path fill="#56565A" d="M357.032,56.789l1.522-1.805c2.272,2.055,4.45,3.08,7.467,3.08c2.924,0,4.852-1.557,4.852-3.703V54.3
	c0-2.023-1.088-3.172-5.661-4.137c-5.007-1.088-7.31-2.707-7.31-6.283v-0.062c0-3.422,3.018-5.941,7.154-5.941
	c3.173,0,5.444,0.902,7.652,2.676l-1.432,1.896c-2.021-1.648-4.043-2.363-6.282-2.363c-2.83,0-4.635,1.555-4.635,3.514v0.062
	c0,2.053,1.12,3.203,5.91,4.23c4.853,1.059,7.092,2.83,7.092,6.158v0.062c0,3.732-3.11,6.158-7.435,6.158
	C362.476,60.271,359.645,59.123,357.032,56.789"/>
</svg>
