<svg xmlns="http://www.w3.org/2000/svg" width="375.924" height="62.448" viewBox="0 0 0 0 375.924 0 62.448"><defs><clipPath id="a"><path d="M2.562 37.813h370.799v22.52H2.562z"/></clipPath></defs><path d="M15.763 16.051c2.656 0 4.25-1.309 4.25-3.393v-.083c0-2.288-1.676-3.432-4.291-3.432h-5.231v6.908zM2.562 2.318h13.527c4.374 0 7.398 1.144 9.32 3.065 1.674 1.676 2.533 3.843 2.533 6.662v.082c0 4.413-2.329 7.316-5.885 8.827l6.825 9.973h-9.114l-5.764-8.664h-3.513v8.664H2.562zm45.606 17.287l-3.188-8.092-3.229 8.092zM41.22 2.113h7.643l12.179 28.814h-8.501l-2.044-5.149H39.422l-2.044 5.149h-8.296zm22.514.204h7.929v21.661h13.855v6.948H63.734zm25.131 0h8.379l6.825 11.076 6.825-11.076h8.379v28.609h-7.888v-16.43l-7.316 11.199h-.164l-7.274-11.157v16.388h-7.766zm52.228 17.288l-3.188-8.092-3.229 8.092zm-6.949-17.492h7.642l12.18 28.814h-8.501l-2.044-5.149h-11.074l-2.045 5.149h-8.296z" fill="#FFFFFE"/><path d="M182.366 2.317l-9.4 13.938 9.808 14.671h-9.113l-5.477-8.664-5.517 8.664h-8.91l9.808-14.549-9.4-14.06h9.115l5.027 8.052 5.149-8.052z" fill="#FFFFFE"/><g clip-path="url(#a)" opacity=".8"><path d="M2.561 49.135v-.062c0-5.972 4.386-11.259 10.918-11.259 3.67 0 5.941 1.057 8.118 2.891l-1.587 1.868c-1.679-1.462-3.545-2.489-6.625-2.489-4.82 0-8.273 4.074-8.273 8.927v.062c0 5.195 3.328 9.051 8.616 9.051 2.488 0 4.79-.964 6.282-2.177v-5.412h-6.625v-2.209h8.99v8.678a13.188 13.188 0 0 1-8.741 3.329c-6.843 0-11.073-4.976-11.073-11.198m34.396.156c3.266 0 5.599-1.68 5.599-4.479v-.062c0-2.676-2.053-4.293-5.568-4.293H30.27v8.834zm-9.145-11.104h9.363c2.675 0 4.821.807 6.189 2.176 1.059 1.058 1.68 2.582 1.68 4.293v.062c0 3.608-2.488 5.724-5.909 6.345l6.686 8.897h-3.016l-6.314-8.461H30.27v8.461h-2.458zm41.084 10.948v-.062c0-4.946-3.608-8.989-8.584-8.989-4.978 0-8.523 3.982-8.523 8.927v.062c0 4.945 3.608 8.991 8.585 8.991 4.976 0 8.522-3.983 8.522-8.929m-19.658 0v-.062c0-6.003 4.51-11.259 11.136-11.259 6.625 0 11.073 5.194 11.073 11.197v.062c0 6.003-4.51 11.26-11.135 11.26-6.626 0-11.074-5.194-11.074-11.198m26.961 1.711V38.187h2.457v12.504c0 4.696 2.519 7.341 6.656 7.341 4.013 0 6.564-2.427 6.564-7.186V38.187h2.456V50.66c0 6.344-3.639 9.642-9.082 9.642-5.381 0-9.051-3.298-9.051-9.456m31.69-.809c3.607 0 5.972-1.929 5.972-4.791v-.061c0-3.111-2.333-4.728-5.848-4.728h-5.506v9.58zm-7.839-11.851h8.15c4.914 0 8.149 2.613 8.149 6.906v.061c0 4.697-3.919 7.123-8.554 7.123h-5.288v7.684h-2.457zm48.608 10.949v-.062c0-4.946-3.607-8.989-8.585-8.989-4.976 0-8.522 3.982-8.522 8.927v.062c0 4.945 3.608 8.991 8.585 8.991 4.976 0 8.522-3.983 8.522-8.929m-19.658 0v-.062c0-6.003 4.511-11.259 11.136-11.259 6.625 0 11.073 5.194 11.073 11.197v.062c0 6.003-4.511 11.26-11.136 11.26-6.625 0-11.073-5.194-11.073-11.198m27.304-10.948h15.646v2.271h-13.189v7.775h11.789v2.24h-11.789v9.487h-2.457zm28.577 10.948v-.062c0-6.159 4.603-11.259 11.01-11.259 3.951 0 6.314 1.399 8.492 3.451l-1.68 1.805c-1.835-1.742-3.887-2.986-6.843-2.986-4.821 0-8.429 3.918-8.429 8.927v.062c0 5.04 3.639 8.991 8.429 8.991 2.987 0 4.946-1.153 7.029-3.144l1.617 1.586c-2.27 2.303-4.758 3.827-8.708 3.827-6.282 0-10.917-4.946-10.917-11.198m41.892 0v-.062c0-4.946-3.607-8.989-8.586-8.989-4.977 0-8.521 3.982-8.521 8.927v.062c0 4.945 3.607 8.991 8.584 8.991 4.976 0 8.523-3.983 8.523-8.929m-19.66 0v-.062c0-6.003 4.512-11.259 11.137-11.259 6.625 0 11.074 5.194 11.074 11.197v.062c0 6.003-4.512 11.26-11.137 11.26-6.625 0-11.074-5.194-11.074-11.198m27.305-10.948h2.488l7.932 11.882 7.932-11.882h2.488V59.96h-2.457V42.324l-7.932 11.665h-.125l-7.931-11.634V59.96h-2.395zm34.736 11.85c3.609 0 5.973-1.929 5.973-4.791v-.061c0-3.111-2.332-4.728-5.848-4.728h-5.506v9.58zm-7.838-11.851h8.149c4.916 0 8.152 2.613 8.152 6.906v.061c0 4.697-3.922 7.123-8.557 7.123h-5.287v7.684h-2.457zm32.625 13.779l-4.945-11.072-4.977 11.072zm-6.066-13.934h2.302l9.922 21.929h-2.642l-2.553-5.755h-11.85l-2.582 5.755h-2.519zm16.418.156h2.301l13.717 17.449V38.187h2.396V59.96h-1.959l-14.06-17.854V59.96h-2.395zm24.691 0h2.457V59.96h-2.457zm8.739 0h15.738v2.24H340.18v7.433h11.881v2.241H340.18v7.62h13.438v2.239h-15.895zm19.31 18.6l1.523-1.804c2.27 2.053 4.448 3.08 7.465 3.08 2.924 0 4.852-1.557 4.852-3.703v-.061c0-2.023-1.088-3.172-5.66-4.138-5.008-1.088-7.311-2.705-7.311-6.283v-.062c0-3.422 3.018-5.941 7.154-5.941 3.172 0 5.444.901 7.653 2.675l-1.432 1.897c-2.021-1.648-4.043-2.363-6.283-2.363-2.83 0-4.633 1.555-4.633 3.515v.061c0 2.053 1.119 3.204 5.908 4.231 4.854 1.057 7.092 2.831 7.092 6.159v.062c0 3.732-3.109 6.157-7.433 6.157-3.454 0-6.284-1.149-8.895-3.482" fill="#FFFFFE"/></g></svg>