<svg xmlns="http://www.w3.org/2000/svg" width="259.992" height="58.164" viewBox="0 0 0 0 259.992 0 58.164"><path d="M11.721 14.783c2.776 0 4.533-1.512 4.533-3.758v-.081c0-2.45-1.757-3.716-4.574-3.716H7.922v7.555zM0 .57h12.291c7.187 0 11.845 3.718 11.845 10.006v.081c0 6.78-5.187 10.333-12.252 10.333H7.922v8.168H0zm49.12 14.375v-.08c0-4.165-2.94-7.718-7.31-7.718-4.37 0-7.268 3.51-7.268 7.636v.082c0 4.125 2.981 7.719 7.35 7.719 4.328 0 7.228-3.514 7.228-7.639m-22.664 0v-.08C26.456 6.656 33.071 0 41.892 0s15.355 6.574 15.355 14.783v.082c0 8.207-6.615 14.865-15.437 14.865-8.82 0-15.354-6.574-15.354-14.785M61.445.57h7.924v28.588h-7.924zm13.064 0H81.9l11.761 15.111V.57h7.84v28.588H94.6L82.35 13.476v15.682h-7.841zm38.952 6.943h-8.535V.57h25.034v6.943h-8.577v21.645h-7.922zM144.569.57h7.922v10.7h10.169V.57h7.921v28.588h-7.921V18.295h-10.169v10.863h-7.922zm52.712 14.375v-.08c0-4.165-2.94-7.718-7.309-7.718-4.371 0-7.269 3.51-7.269 7.636v.082c0 4.125 2.981 7.719 7.35 7.719 4.328 0 7.228-3.514 7.228-7.639m-22.664 0v-.08C174.617 6.656 181.232 0 190.053 0s15.354 6.574 15.354 14.783v.082c0 8.207-6.615 14.865-15.435 14.865-8.821 0-15.355-6.574-15.355-14.785m46.506-.162c2.776 0 4.532-1.512 4.532-3.758v-.081c0-2.45-1.756-3.716-4.574-3.716h-3.756v7.555zM209.403.57h12.29c7.188 0 11.845 3.718 11.845 10.006v.081c0 6.78-5.187 10.333-12.252 10.333h-3.961v8.168h-7.922zm27.393 0h22.991v6.698h-15.15v4.369h13.721v6.251h-13.721v4.532h15.355v6.738h-23.196zM0 36.41h2.485l7.925 11.873 7.926-11.873h2.485v21.754h-2.455V40.543l-7.925 11.654h-.124L2.392 40.576v17.588H0zm40.985 13.767l-4.941-11.063-4.974 11.063zm-6.06-13.922h2.299l9.914 21.908h-2.642l-2.548-5.748h-11.84l-2.58 5.748h-2.517zm25.538 11.251c3.264 0 5.595-1.68 5.595-4.478v-.062c0-2.671-2.052-4.286-5.563-4.286h-6.713v8.826zM51.328 36.41h9.353c2.674 0 4.816.809 6.184 2.176 1.056 1.057 1.68 2.578 1.68 4.289v.063c0 3.604-2.487 5.715-5.907 6.338l6.683 8.888h-3.014l-6.309-8.453h-6.216v8.453h-2.454zm22.586 0h2.454v21.754h-2.454zm14.479 2.269h-7.302v-2.27h17.091v2.27H90.88v19.484h-2.487zm14.506-2.269h2.455v21.754h-2.455zm8.731 0h2.485l7.926 11.873 7.925-11.873h2.485v21.754h-2.454V40.543l-7.926 11.654h-.123l-7.926-11.621v17.588h-2.392zm26.876 0h15.724v2.236h-13.269v7.428h11.871v2.238h-11.871v7.614h13.424v2.238h-15.879z" fill="#FFF"/></svg>