<svg xmlns="http://www.w3.org/2000/svg" width="305.472" height="178.299" viewBox="0 0 305.472 178.299">
  <path id="wave" d="M302.751,123.952a6.033,6.033,0,0,1,.793.628c2.246,2.147,2.312,1.85,0,3.964a54.078,54.078,0,0,1-28.01,13.576,84.812,84.812,0,0,1-9.116.76,20.406,20.406,0,0,1-3.468-.5c-1.123-.132-2.312.3-3.468.132a68.727,68.727,0,0,1-9.249-1.949,11.64,11.64,0,0,1-1.387-.5c-.132-.066-.33-.33-.3-.429.1-.231.3-.595.5-.628a10.555,10.555,0,0,1,1.453-.033.288.288,0,0,0,.3-.4,1.013,1.013,0,0,0-.3-.462.375.375,0,0,0-.264-.1,2.411,2.411,0,0,1-2.015-.991c-.595-.727-1.156-.628-1.685.066a5.708,5.708,0,0,0-.528.991c-.793-.892-1.652.33-2.477-.1-.528-.264-1.09-.462-1.618-.727a47.589,47.589,0,0,1-9.249-5.747c-2.444-1.982-4.822-4.03-7.2-6.078-1.222-1.057-2.147-2.411-3.666-3.2-1.387-.727-2.543-1.85-3.865-2.675-1.42-.892-2.907-1.685-4.36-2.477-.859-.462-1.817-.76-2.279-1.784-.1-.2-.562-.4-.727-.3-1.288.529-2.279-.3-3.369-.628-17.473-5.351-33.625-2.973-48.291,8.159a80.3,80.3,0,0,0-6.375,5.714,55.568,55.568,0,0,1-7.663,5.979,4.758,4.758,0,0,1-1.288.661,1.141,1.141,0,0,1-.76-.231c-.33-.231.132-1.156-.661-.925-.529.132-.529.826-.429,1.288.231,1.057-.462,1.354-1.189,1.751a51.04,51.04,0,0,1-14.732,5.12c-13.212,2.378-25.863.661-37.721-5.813a53.053,53.053,0,0,1-9.414-6.606c-2.213-1.949-4.426-3.9-6.672-5.78-1.354-1.123-2.775-2.213-4.228-3.237a2.163,2.163,0,0,1-1.09-1.949c.066-.958-.429-2.345.3-2.808,1.024-.694,1.916.595,2.742,1.156,1.784,1.222,3.5,2.543,5.186,3.9,2.18,1.817,4.294,3.732,6.441,5.615a49.989,49.989,0,0,0,29.695,12.387c1.85.132,3.732-.231,5.516.528.4.165.727-.066,1.09-.2.462-.165.958-.2,1.387-.363,1.123-.462,2.213.76,3.369-.132.958-.727,2.279-.462,3.4-.826,1.024-.3,2.114-.529,3.138-.826,1.123-.33,2.246-.727,3.369-1.057a7.52,7.52,0,0,1,2.841-.727,1.125,1.125,0,0,0,.793-.3c1.156-1.288,2.841-1.751,4.261-2.576a50.773,50.773,0,0,0,9.017-6.639c1.222-1.123,2.444-2.279,3.666-3.4a55.693,55.693,0,0,1,75.409.363c2.015,1.883,4.129,3.633,6.276,5.351a49.507,49.507,0,0,0,15.756,8.489c5.582,1.817,11.363,2.312,17.143,2.642,12.254-.76,23.287-4.591,32.568-12.882.727-.661,1.486-1.288,2.213-1.949.066-.066.165-.066.462-.2Zm-24.145,16.383a1.717,1.717,0,0,0-1.552-1.453c-.1,0-.363.2-.363.33a1.632,1.632,0,0,0,1.354,1.618A.483.483,0,0,0,278.606,140.335Zm-2.742.165a1.023,1.023,0,0,0-.727-1.09c-.429-.132-.661.264-.76.628a.788.788,0,0,0,.661,1.057.723.723,0,0,0,.826-.595Zm-21.437-.562a.97.97,0,0,0-.991-.793.752.752,0,0,0-.661.793.71.71,0,0,0,.661.793C253.9,140.732,254.427,140.368,254.427,139.939Zm-33.956-21.668h-.363c-.3.066-.595.165-.5.528a.567.567,0,0,0,.661.4,6.542,6.542,0,0,0,1.09-.264c.066,0,.165-.165.132-.2-.066-.132-.132-.363-.264-.4a2.185,2.185,0,0,0-.76-.1ZM144.666,94.224c-.859.462-1.751.892-2.576,1.42-12.585,7.663-26.061,9.546-40.3,6.045A35.211,35.211,0,0,1,93.8,98.948a58.287,58.287,0,0,1-13.443-8.984c-1.718-1.585-3.567-3.072-5.351-4.624-.562-.5-1.024-.4-1.486.165a.543.543,0,0,1-.793.1c-.231-.2-.429-.528-.231-.793.694-.892.264-1.387-.5-1.883-1.486-.958-2.94-1.949-4.459-2.907a.544.544,0,0,0-.859.429c-.1.694,0,1.387-.1,2.048A2.622,2.622,0,0,0,68,85.174a73.009,73.009,0,0,1,9.083,7.5A54,54,0,0,0,112.3,107.3c15.26.628,28.671-4.1,40-14.4,1.321-1.189,2.576-2.444,3.9-3.6,12.023-10.636,26.028-14.6,41.85-12.519a48.711,48.711,0,0,1,14.071,4.195c.892.429.991.363,1.42-.661s1.057-1.585,1.585-1.387a1.972,1.972,0,0,1,.958,1.982,1.086,1.086,0,0,1-.132.562c-.462.925-.1,1.453.727,1.916,4.393,2.477,8.092,5.912,11.792,9.282a56.125,56.125,0,0,0,58.894,10.636c1.585-.628,1.552-.661,1.354-2.609,0-.132.2-.3.3-.429a1.589,1.589,0,0,1,.529.264c1.123,1.09,2.213.826,3.435.132a56.721,56.721,0,0,0,10.5-7.6c2.18-2.015,2.18-2.048-.033-3.964-.793-.694-.958-.694-1.718,0-.462.4-.859.793-1.288,1.189-15.855,14.5-39.637,17.077-58.3,7.1-1.685-.892-3.27-1.718-5.252-1.486a1.829,1.829,0,0,1-.595-.066c-.429-.132-.793-.429-.5-.826.595-.859.264-1.354-.462-1.949-3.006-2.51-5.979-5.12-8.951-7.663a55.889,55.889,0,0,0-60.017-7.828c-.694.33-1.685.595-1.982,1.189-.528,1.123-1.453,1.024-2.345,1.354-1.486.562-3.27,1.09-3.666,3.006-.2.892-.5,1.255-1.354.727-.429-.264-.528.132-.595.363-.231.76-.462,1.685-1.387,1.685-1.354,0-2.147.826-3.006,1.619-1.222,1.156-2.477,2.246-3.7,3.4-.727.694-1.817,1.156-1.321,2.609.2.595-.628,1.156-1.156,1.585-.661.562-1.189.165-1.354-.958l.066.066ZM66.912,150.806c.661-.2,1.123.231,1.619.528a47.951,47.951,0,0,1,5.946,4.327c2.246,1.916,4.459,3.865,6.672,5.813a49.813,49.813,0,0,0,32.271,12.618,43.429,43.429,0,0,0,8.786-.429c.363-.066.958-.132,1.123.066,1.255,1.486,1.817.5,2.675-.5.5-.562,1.585-.661,2.444-.892a49.59,49.59,0,0,0,21.4-11.99c1.156-1.09,2.312-2.147,3.468-3.2a53.414,53.414,0,0,1,11.33-7.96c.826-.429,1.619-1.123,2.742-.76a1.307,1.307,0,0,0,1.288-.562,8.451,8.451,0,0,1,3.865-2.048,56.576,56.576,0,0,1,28.539-1.916,48.228,48.228,0,0,1,12.056,3.765c.595.3,1.321.462,1.321,1.354,0,1.156.462,1.156,1.189.462a.846.846,0,0,1,1.057-.066c.694.4,1.387.76,2.048,1.156a54.231,54.231,0,0,1,7.663,5.516c2.147,1.85,4.294,3.732,6.441,5.615a48.835,48.835,0,0,0,24.773,11.627c1.618.264,3.171.925,4.889.727a45.054,45.054,0,0,1,4.723,0,49.73,49.73,0,0,0,33.526-13.245c.562-.528,1.156-1.024,1.685-1.486.892.1,1.255.76,1.751,1.189a2.63,2.63,0,0,1,1.057,1.387c-.231.793-.925,1.222-1.486,1.751a53.241,53.241,0,0,1-29.1,13.873,54.847,54.847,0,0,1-38.15-7.96c-1.817-1.156-3.5-2.543-5.252-3.8-.859-.595-1.123-1.189-.462-2.147.3-.429-.3-1.057-.793-.793a2.119,2.119,0,0,1-2.642-.5c-.628-.595-1.42-1.057-2.048-1.652a50.186,50.186,0,0,0-20.017-11.561c-.363-.1-.76-.2-1.123-.33a1.17,1.17,0,0,1-.925-1.288,15.342,15.342,0,0,0-.033-1.751c0-.264-.165-.4-.363-.264a1.482,1.482,0,0,0-.429.363c-.066.066-.066.2-.1.264-.3.595.231,1.552-.562,1.817a4.67,4.67,0,0,1-2.015-.1c-1.156-.165-2.312-.429-3.5-.5-1.486-.1-3.006-.033-3.2-2.114,0-.1-.5-.2-.76-.2a.569.569,0,0,0-.4.33c-.066.4,0,.793-.1,1.156-.066.3-.826.462-1.024.2-.33-.429-.562-.925-1.024-1.685-.066,1.585-.892,2.048-2.147,2.081a45.375,45.375,0,0,0-11.33,1.85,48.914,48.914,0,0,0-20.149,11.263c-1.751,1.585-3.435,3.237-5.219,4.789-.76.661-1.387,1.751-2.742,1.321-.33-.1-.528.264-.528.528-.066,1.057-.925,1.453-1.619,1.949a54.59,54.59,0,0,1-21.47,8.621,57.973,57.973,0,0,1-11.462.727c-.363,0-.793.033-1.057-.33-.264-.4.231-.727.2-1.09a.884.884,0,0,0-.4-.694c-.2-.1-.528.033-.793.1a.309.309,0,0,0-.231.165c-.727,1.751-2.048,1.685-3.633,1.42A55.082,55.082,0,0,1,82.5,167.817c-.727-.529-1.42-1.057-2.081-1.618-.429-.33-.628-.76-.165-1.222.826-.826.462-1.585-.165-2.345-.562-.628-1.156-.528-1.519.264-.033.1-.033.2-.066.3-.132.661-.528.826-1.024.429-2.742-2.246-5.417-4.558-8.159-6.8-.925-.76-1.156-2.081-2.312-2.609-.165-.066-.264-.529-.264-.793a5.393,5.393,0,0,1,.231-2.609Zm198.349,25.632c.628.066,1.486-.925,1.321-1.486a1.15,1.15,0,0,0-.363-.429c-.462-.231-.727.1-.925.462-.231.4-.694.76-.231,1.288.066.066.165.1.231.165ZM302.652,53.2a7.873,7.873,0,0,1,2.213,1.85.828.828,0,0,1,.1,1.288,50.666,50.666,0,0,1-12.023,8.951c-.958.528-1.156-.264-1.519-.826-.132-.231-.363-.5-.661-.231-.132.1-.132.363-.132.562a14.216,14.216,0,0,0,.231,1.519c-.694.363-1.354.76-2.081,1.057a56.07,56.07,0,0,1-26.193,4.558A56.76,56.76,0,0,1,246.2,68.394c-1.519-.562-2.94-1.156-3.171-3.072a.514.514,0,0,0-.892-.3c-.925.958-1.784.826-2.874.165a57.645,57.645,0,0,1-8.026-5.516c-2.246-1.883-4.492-3.832-6.672-5.78a51.327,51.327,0,0,0-69.464,1.09c-.925.892-1.883,1.751-2.808,2.609A52.587,52.587,0,0,1,122.9,71.5c-17.242,2.246-32.5-2.246-45.549-14.005A91.044,91.044,0,0,0,67.8,49.6a2.833,2.833,0,0,1-.859-.793,1.163,1.163,0,0,1-.1-.826.556.556,0,0,1,.694-.363c1.222.3,2.444.859,3.666-.033.3-.231.76-.033,1.09.2.694.528,1.42,1.057,2.081,1.652,2.246,1.916,4.459,3.832,6.672,5.78a49.823,49.823,0,0,0,29.034,12.519c.5.033.991.066,1.453.132a3.364,3.364,0,0,1,1.387.4c.528.33-.033.892.066,1.321a4.314,4.314,0,0,0,.4,1.09.892.892,0,0,0,.727.33c.231,0,.5-.264.694-.429a.967.967,0,0,0,.231-.528c.132-.562.066-1.255.363-1.652.429-.595,1.255-.363,1.949-.4a51.684,51.684,0,0,0,21.734-5.979A1.991,1.991,0,0,1,141,61.656c.429.165.727-.1.793-.562a1.912,1.912,0,0,1,1.123-1.288,70.271,70.271,0,0,0,9.942-8.324,53.537,53.537,0,0,1,11.759-8.357c.429-.231.859-.462,1.321-.661,1.486-.661,1.685-.5,1.916,1.387,0,.132.2.33.363.363a.641.641,0,0,0,.529-.165.669.669,0,0,0,.2-.528c-.429-2.147.826-2.874,2.609-3.468a65.973,65.973,0,0,1,12.32-2.841c1.057-.132,1.057-.132,1.751,1.321.462-.033.661-.4.826-.727a1.451,1.451,0,0,1,1.42-.826c4.426-.066,8.852-.165,13.179,1.057,1.321.363,2.675.33,4.03.727a64.217,64.217,0,0,1,9.116,3.369,1.539,1.539,0,0,1,1.057,1.552,6.923,6.923,0,0,0,.462,1.982.607.607,0,0,0,.958.264c.132-.132.231-.33.363-.462,1.189-1.255,1.222-1.321,2.675-.363a48.806,48.806,0,0,1,4.822,3.4c2.444,1.982,4.855,4,7.168,6.111a55.082,55.082,0,0,0,8.984,6.672,11.231,11.231,0,0,1,1.949,1.321,2.548,2.548,0,0,0,1.751.859,5.388,5.388,0,0,1,1.949.628,51.948,51.948,0,0,0,31.247,2.775,8.269,8.269,0,0,0,.859-.231c.958-.231,1.486.066,1.618,1.123.066.4.661.429.892.1.066-.066.165-.165.165-.231,0-1.585,1.09-2.015,2.411-2.477a48.346,48.346,0,0,0,17.539-10.636,4.486,4.486,0,0,1,1.652-1.255ZM121.016,70.674a3.04,3.04,0,0,0-1.552-2.51.941.941,0,0,0-1.255.363c-.231.363-.3.76,0,1.024a18.337,18.337,0,0,0,2.081,1.486c.231.132.528,0,.694-.363Zm28.77-12.816c0-.562-.165-.793-.462-.892-.363-.132-.5.2-.628.429a4.043,4.043,0,0,0-.33.793.7.7,0,0,0,.429.925.564.564,0,0,0,.694-.4,8.3,8.3,0,0,0,.33-.859ZM253.37,68.229a1.1,1.1,0,0,0-1.222-.958c-.462,0-.661.4-.661.793a.843.843,0,0,0,.859.958.891.891,0,0,0,1.024-.76ZM71.966,50.756a.711.711,0,0,0,.694-.76,1.061,1.061,0,0,0-.793-1.024c-.33-.132-.826.5-.793.925.033.562.4.793.892.859Zm15.657,13.08a4.606,4.606,0,0,0,.727-.5,1,1,0,0,0,0-1.321.77.77,0,0,0-.5-.231c-.694.132-.462.694-.462,1.156a3.562,3.562,0,0,0,.231.892ZM10.363,49.567a49.6,49.6,0,0,1,8.522-4.657A50.44,50.44,0,0,1,28.167,42a47.47,47.47,0,0,1,9.645-1.123,56.475,56.475,0,0,1,9.711.661,58.087,58.087,0,0,1,9.414,2.477c3.039,1.057,5.813,2.709,8.72,4.03.2-.231.3-.3.3-.363.462-4.228.562-3.865-3.039-5.549a55.158,55.158,0,0,0-32.2-4.657A53.281,53.281,0,0,0,2.073,50.954,6.252,6.252,0,0,0,.091,53.2,11.634,11.634,0,0,0,2.8,55.909a61.322,61.322,0,0,1,7.63-6.309Zm-6.309,75.9a49.553,49.553,0,0,1,14.963-9.81c.363-.165.727-.3,1.09-.462a1.066,1.066,0,0,0,.628-.925,5.3,5.3,0,0,1,.132-1.453,1.149,1.149,0,0,1,1.123-.826,1,1,0,0,1,.892.628c.793,1.255.793,1.321,1.883.991a55.044,55.044,0,0,1,16.912-1.949c1.288,0,2.709.5,3.931-.429a.572.572,0,0,1,.793.132c.694,1.024,1.817.991,2.874,1.222a54.208,54.208,0,0,1,14.368,5.186c.727.4,1.486,1.354,2.345.727.595-.462.231-1.486.3-2.246a2.337,2.337,0,0,0-1.585-2.543c-.826-.33-1.585-.793-2.378-1.156a55.863,55.863,0,0,0-32.271-4.228,53.428,53.428,0,0,0-28.472,13.84c-.562.529-1.288.958-1.42,1.883A12.185,12.185,0,0,0,2.8,126.595c.562-.5.958-.793,1.321-1.123ZM5.211,159.79C17.4,149.254,31.5,145.389,47.391,147.7a49.914,49.914,0,0,1,16.383,5.582c.661.363,1.255.991,2.213.727a8.154,8.154,0,0,0,.231-2.841,1.916,1.916,0,0,0-1.189-1.85c-.429-.2-.892-.694-1.321-.4-.562.429.165.793.3,1.222.1.264.3.562.264.793a.883.883,0,0,1-.429.694c-.2.132-.661.2-.793.066a11.53,11.53,0,0,1-2.378-2.543,7.11,7.11,0,0,0-4.624-3.633A56.031,56.031,0,0,0,35.4,143.077,53.542,53.542,0,0,0,2.3,156.818c-2.742,2.444-3.3,2.213.4,5.021a11.367,11.367,0,0,0,2.477-2.048ZM52.577,73.778a1.348,1.348,0,0,0-1.552.462,3.736,3.736,0,0,1-.859.76.478.478,0,0,1-.76-.462c-.1-1.453-.1-1.453-1.189-1.652a58.182,58.182,0,0,0-15.888-.363,52.247,52.247,0,0,0-16.912,4.822,51.639,51.639,0,0,0-14.3,9.777,2.268,2.268,0,0,0-.991,1.619,10.16,10.16,0,0,0,2.742,2.345c.826-.76,1.552-1.387,2.279-2.048a50.2,50.2,0,0,1,12.783-8.357c1.321-.628,2.808-.925,3.9-2.048a.908.908,0,0,1,.793-.264,5.03,5.03,0,0,0,2.874-.4,62.408,62.408,0,0,1,8.093-1.552c.562-.066,1.189.066,1.718-.562-.1-.5-.2-1.057-.3-1.618a2.694,2.694,0,0,1,0-.892.5.5,0,0,1,.363-.4c.132-.033.429,0,.5.165a1.291,1.291,0,0,1,.33.793c-.066,1.42.925,1.817,1.982,2.18a5.3,5.3,0,0,0,1.453.132,45.48,45.48,0,0,1,7.63.661c.5.1,1.09.231,1.42-.132.595-.661.892-.5,1.222.2.3.595.958.595,1.519.76a52.373,52.373,0,0,1,13.113,5.252c.429.231.859.528,1.42.264a4.525,4.525,0,0,0,.231-.793,11.169,11.169,0,0,0,.033-1.486c-.066-1.949-.3-2.18-2.675-2.675-.1.694-.165,1.354-.264,2.015-.066.33-.727.429-.991.165a1.5,1.5,0,0,1-.562-1.585,12.489,12.489,0,0,1,.628-1.618,49.664,49.664,0,0,0-9.744-3.468ZM144.6,94.158a3.094,3.094,0,0,0,.528-.132c.264-.066.3-.2.1-.3-.066,0-.2,0-.231.066-.1.132-.2.3-.3.429l-.066-.066ZM69.885,46.264a.537.537,0,0,0-.661-.429c-.231.033-.231.231-.066.429.264.264.528.165.793,0ZM66.747,44.91c0,.165.165.3.264.462.132-.132.33-.3.33-.429s-.165-.3-.3-.462c-.1.132-.3.264-.33.429Zm3.138,1.354-.165.066a2.105,2.105,0,0,1,.231-.066ZM67.209,7.783c.661-.2,1.123.231,1.618.528a47.954,47.954,0,0,1,5.946,4.327c2.246,1.916,4.459,3.865,6.672,5.813A49.813,49.813,0,0,0,113.716,31.07a43.429,43.429,0,0,0,8.786-.429c.363-.066.958-.132,1.123.066,1.255,1.486,1.817.5,2.675-.5.5-.562,1.585-.661,2.444-.892a49.59,49.59,0,0,0,21.4-11.99c1.156-1.09,2.312-2.147,3.468-3.2a53.414,53.414,0,0,1,11.33-7.96c.826-.429,1.618-1.123,2.742-.76a1.307,1.307,0,0,0,1.288-.562A8.451,8.451,0,0,1,172.841,2.8,56.577,56.577,0,0,1,201.38.88a48.228,48.228,0,0,1,12.056,3.765c.595.3,1.321.462,1.321,1.354,0,1.156.462,1.156,1.189.462A.846.846,0,0,1,217,6.4c.694.4,1.387.76,2.048,1.156a54.232,54.232,0,0,1,7.663,5.516c2.147,1.85,4.294,3.732,6.441,5.615A48.835,48.835,0,0,0,257.928,30.31c1.618.264,3.171.925,4.889.727a45.059,45.059,0,0,1,4.723,0,49.729,49.729,0,0,0,33.526-13.245c.562-.528,1.156-1.024,1.685-1.486.892.1,1.255.76,1.751,1.189a2.631,2.631,0,0,1,1.057,1.387c-.231.793-.925,1.222-1.486,1.751a53.241,53.241,0,0,1-29.1,13.873,54.847,54.847,0,0,1-38.15-7.96c-1.817-1.156-3.5-2.543-5.252-3.8-.859-.595-1.123-1.189-.462-2.147.3-.429-.3-1.057-.793-.793a2.119,2.119,0,0,1-2.642-.5c-.628-.595-1.42-1.057-2.048-1.652A50.186,50.186,0,0,0,205.608,6.1c-.363-.1-.76-.2-1.123-.33a1.17,1.17,0,0,1-.925-1.288,15.342,15.342,0,0,0-.033-1.751c0-.264-.165-.4-.363-.264a1.482,1.482,0,0,0-.429.363c-.066.066-.066.2-.1.264-.3.595.231,1.552-.562,1.817a4.67,4.67,0,0,1-2.015-.1c-1.156-.165-2.312-.429-3.5-.5-1.486-.1-3.006-.033-3.2-2.114,0-.1-.5-.2-.76-.2a.569.569,0,0,0-.4.33c-.066.4,0,.793-.1,1.156-.066.3-.826.462-1.024.2-.33-.429-.562-.925-1.024-1.685-.066,1.585-.892,2.048-2.147,2.081a45.375,45.375,0,0,0-11.33,1.85A48.914,48.914,0,0,0,156.425,17.2c-1.751,1.585-3.435,3.237-5.219,4.789-.76.661-1.387,1.751-2.742,1.321-.33-.1-.529.264-.529.528-.066,1.057-.925,1.453-1.618,1.949a54.59,54.59,0,0,1-21.47,8.621,57.972,57.972,0,0,1-11.462.727c-.363,0-.793.033-1.057-.33-.264-.4.231-.727.2-1.09a.884.884,0,0,0-.4-.694c-.2-.1-.528.033-.793.1a.309.309,0,0,0-.231.165c-.727,1.751-2.048,1.685-3.633,1.42A55.082,55.082,0,0,1,82.8,24.794c-.727-.528-1.42-1.057-2.081-1.619-.429-.33-.628-.76-.165-1.222.826-.826.462-1.585-.165-2.345-.562-.628-1.156-.528-1.519.264-.033.1-.033.2-.066.3-.132.661-.528.826-1.024.429-2.742-2.246-5.417-4.558-8.159-6.8-.925-.76-1.156-2.081-2.312-2.609-.165-.066-.264-.528-.264-.793a5.393,5.393,0,0,1,.231-2.609ZM265.592,33.415c.628.066,1.486-.925,1.321-1.486a1.15,1.15,0,0,0-.363-.429c-.462-.231-.727.1-.925.462-.231.4-.694.76-.231,1.288.066.066.165.1.231.165ZM5.508,16.767C17.7,6.231,31.8,2.366,47.688,4.678A49.915,49.915,0,0,1,64.071,10.26c.661.363,1.255.991,2.213.727a8.154,8.154,0,0,0,.231-2.841A1.916,1.916,0,0,0,65.326,6.3c-.429-.2-.892-.694-1.321-.4-.562.429.165.793.3,1.222.1.264.3.562.264.793a.883.883,0,0,1-.429.694c-.2.132-.661.2-.793.066a11.53,11.53,0,0,1-2.378-2.543A7.11,7.11,0,0,0,56.342,2.5,56.454,56.454,0,0,0,35.731.087a53.356,53.356,0,0,0-33.1,13.741c-2.742,2.444-3.3,2.213.4,5.021A11.367,11.367,0,0,0,5.508,16.8Z" transform="translate(-0.086 0.117)" fill="#e38432"/>
</svg>
